<mxfile host="app.diagrams.net" modified="2024-05-18T19:37:27.521Z" agent="Mozilla/5.0 (Windows NT 10.0; Win64; x64) AppleWebKit/537.36 (KHTML, like Gecko) Chrome/122.0.0.0 YaBrowser/24.4.0.0 Safari/537.36" version="24.4.3" etag="spz78883JP6V9O9Aw_Gh" type="github">
  <diagram name="Страница — 1" id="--V8O41dewvZ9q_qonn5">
    <mxGraphModel>
      <root>
        <mxCell id="0" />
        <mxCell id="1" parent="0" />
      </root>
    </mxGraphModel>
  </diagram>
</mxfile>
